<svg xmlns="http://www.w3.org/2000/svg" width="64" height="64" viewBox="0 0 64 64" fill="none" role="img" aria-labelledby="inox304-linea-caliente-normal-title">
<title id="inox304-linea-caliente-normal-title">Línea caliente · normal</title>
<defs>
<linearGradient id="inox304-linea-caliente-normal-metal" x1="18" y1="10" x2="44" y2="54" gradientUnits="userSpaceOnUse"><stop offset="0" stop-color="#A5B3C7"/><stop offset=".52" stop-color="#899DB8"/><stop offset="1" stop-color="#7B8CA6"/></linearGradient>

</defs>

<g stroke="url(#inox304-linea-caliente-normal-metal)" stroke-width="1.9" stroke-linecap="round" stroke-linejoin="round"><path d="M33.4 10.3c1.1 9.7-10.8 12.2-10.8 22.2 0 2.4.8 4.5 2.3 6.2-4.1-1.6-6.7-4.6-7.2-9.1-3.1 4.1-4.2 7.8-3.4 12.3C15.8 49.2 22.8 54 31.3 54c10.2 0 18.5-6.6 18.5-16.4 0-10-8.7-14.6-10.2-23.4-1.2 2.4-1.6 4.3-1.5 6.5-1.3-4.5-2.9-7.8-4.7-10.4Z"/>
<path d="M28.9 45.8c-2.5-4.4 3.9-6.8 4.7-11.4 4.3 4.4 5.9 8.5 2.1 12.3"/></g>
</svg>